<svg xmlns="http://www.w3.org/2000/svg" width="1024" height="1024" viewBox="0 0 1024 1024">
  <defs>
    <linearGradient id="bg" x1="0" y1="0" x2="1" y2="1">
      <stop offset="0%" stop-color="#eef6ff"/>
      <stop offset="100%" stop-color="#d7f0e8"/>
    </linearGradient>
  </defs>
  <rect width="1024" height="1024" rx="220" fill="url(#bg)"/>
  <rect x="160" y="180" width="704" height="664" rx="96" fill="#ffffff"/>
  <path d="M292 408L512 248L732 408V456H676V760H348V456H292Z" fill="#2f6fed"/>
  <rect x="420" y="520" width="184" height="240" rx="28" fill="#ffffff"/>
  <rect x="556" y="332" width="150" height="260" rx="40" fill="#0f9d78"/>
  <rect x="588" y="392" width="72" height="18" rx="9" fill="#ffffff" opacity="0.95"/>
  <rect x="588" y="446" width="72" height="18" rx="9" fill="#ffffff" opacity="0.95"/>
  <rect x="588" y="500" width="72" height="18" rx="9" fill="#ffffff" opacity="0.95"/>
  <path d="M590 610L620 640L676 576" fill="none" stroke="#ffffff" stroke-width="26" stroke-linecap="round" stroke-linejoin="round"/>
  <circle cx="398" cy="610" r="26" fill="#0f9d78"/>
  <path d="M386 610L396 620L412 600" fill="none" stroke="#ffffff" stroke-width="10" stroke-linecap="round" stroke-linejoin="round"/>
  <rect x="438" y="596" width="100" height="18" rx="9" fill="#bfd3f8"/>
  <circle cx="398" cy="678" r="26" fill="#0f9d78"/>
  <path d="M386 678L396 688L412 668" fill="none" stroke="#ffffff" stroke-width="10" stroke-linecap="round" stroke-linejoin="round"/>
  <rect x="438" y="664" width="100" height="18" rx="9" fill="#bfd3f8"/>
  <circle cx="398" cy="746" r="26" fill="#0f9d78"/>
  <path d="M386 746L396 756L412 736" fill="none" stroke="#ffffff" stroke-width="10" stroke-linecap="round" stroke-linejoin="round"/>
  <rect x="438" y="732" width="100" height="18" rx="9" fill="#bfd3f8"/>
  <text x="512" y="892" text-anchor="middle" font-family="sans-serif" font-size="72" font-weight="700" fill="#16324f">Checktime MCP</text>
</svg>
